<svg width="32" height="32" viewBox="0 0 32 32" fill="none" xmlns="http://www.w3.org/2000/svg">
<path d="M26.9995 18.75L26.9995 14H25.2505C25.0278 14 24.9162 13.7307 25.0737 13.5732L27.3227 11.083C27.3715 11.0342 27.4355 11 27.4995 11C27.5635 11 27.6275 11.0342 27.6763 11.083L29.9258 13.5732C30.0833 13.7307 29.9717 14 29.749 14L27.9995 14L27.9995 18.75C27.9995 18.8881 27.8876 19 27.7495 19H27.2495C27.1114 19 26.9995 18.8881 26.9995 18.75Z" fill="white"/>
<path d="M21.9995 11.25L21.9995 16H20.2505C20.0278 16 19.9162 16.2693 20.0737 16.4268L22.3227 18.917C22.3715 18.9658 22.4355 19 22.4995 19C22.5635 19 22.6275 18.9658 22.6763 18.917L24.9258 16.4268C25.0833 16.2693 24.9717 16 24.749 16L22.9995 16L22.9995 11.25C22.9995 11.1119 22.8876 11 22.7495 11H22.2495C22.1114 11 21.9995 11.1119 21.9995 11.25Z" fill="white"/>
<path d="M18.75 19L18.25 19C18.1119 19 18 19.1119 18 19.25L18 22.75C18 22.8881 18.1119 23 18.25 23L30.75 23C30.8881 23 31 22.8881 31 22.75L31 19.25C31 19.1119 30.8881 19 30.75 19L30.25 19C30.1119 19 30 19.1119 30 19.25L30 21.9869L19 21.9869L19 19.25C19 19.1119 18.8881 19 18.75 19Z" fill="white"/>
</svg>
